<svg width="484" height="695" viewBox="0 0 484 695" fill="none" xmlns="http://www.w3.org/2000/svg">
<path d="M380.98 271.336H102.978C63.6442 271.336 49.9779 245.002 72.9779 213.002L211.98 18.3354C228.313 -4.99788 255.643 -4.99788 271.977 18.3354L410.98 213.002C433.98 245.002 420.313 271.336 380.98 271.336Z" fill="#31433A"/>
<path d="M428.32 536.004H55.6533C2.98667 536.004 -15.0133 501.004 15.9867 458.337L148.986 271.337H334.987L467.987 458.337C498.987 501.004 480.987 536.004 428.32 536.004Z" fill="#31433A"/>
<path d="M267 536V669.333C267 683 255.667 694.333 242 694.333C228.333 694.333 217 683 217 669.333V536H267Z" fill="#4F3C35"/>
</svg>
